<!-- Placeholder SVG for St. Joseph Cathedral -->
<svg width="400" height="300" xmlns="http://www.w3.org/2000/svg">
  <defs>
    <linearGradient id="skyGrad" x1="0%" y1="0%" x2="0%" y2="100%">
      <stop offset="0%" style="stop-color:#87CEEB;stop-opacity:1" />
      <stop offset="100%" style="stop-color:#98D8E8;stop-opacity:1" />
    </linearGradient>
    <linearGradient id="gothicStone" x1="0%" y1="0%" x2="0%" y2="100%">
      <stop offset="0%" style="stop-color:#C0C0C0;stop-opacity:1" />
      <stop offset="100%" style="stop-color:#A9A9A9;stop-opacity:1" />
    </linearGradient>
  </defs>
  
  <!-- Sky background -->
  <rect width="400" height="300" fill="url(#skyGrad)"/>
  
  <!-- Ground -->
  <rect x="0" y="250" width="400" height="50" fill="#228B22"/>
  
  <!-- Cathedral main structure (Neo-Gothic) -->
  <rect x="120" y="120" width="160" height="130" fill="url(#gothicStone)" stroke="#696969" stroke-width="2"/>
  
  <!-- Gothic pointed arch entrance -->
  <path d="M 180 220 Q 180 180 200 180 Q 220 180 220 220 L 220 250 L 180 250 Z" fill="#2F4F4F"/>
  
  <!-- Central spire -->
  <rect x="190" y="60" width="20" height="60" fill="url(#gothicStone)" stroke="#696969" stroke-width="2"/>
  <polygon points="185,60 200,40 215,60" fill="#A9A9A9" stroke="#696969" stroke-width="2"/>
  
  <!-- Side towers -->
  <rect x="100" y="100" width="30" height="150" fill="url(#gothicStone)" stroke="#696969" stroke-width="2"/>
  <rect x="270" y="100" width="30" height="150" fill="url(#gothicStone)" stroke="#696969" stroke-width="2"/>
  
  <!-- Tower spires -->
  <polygon points="95,100 115,75 135,100" fill="#A9A9A9" stroke="#696969" stroke-width="2"/>
  <polygon points="265,100 285,75 305,100" fill="#A9A9A9" stroke="#696969" stroke-width="2"/>
  
  <!-- Crosses -->
  <rect x="198" y="30" width="4" height="15" fill="#2F4F4F"/>
  <rect x="193" y="35" width="14" height="3" fill="#2F4F4F"/>
  <rect x="113" y="65" width="4" height="15" fill="#2F4F4F"/>
  <rect x="108" y="70" width="14" height="3" fill="#2F4F4F"/>
  <rect x="283" y="65" width="4" height="15" fill="#2F4F4F"/>
  <rect x="278" y="70" width="14" height="3" fill="#2F4F4F"/>
  
  <!-- Gothic windows -->
  <path d="M 140 140 Q 140 130 150 130 Q 160 130 160 140 L 160 170 L 140 170 Z" fill="#4169E1" stroke="#000" stroke-width="1"/>
  <path d="M 240 140 Q 240 130 250 130 Q 260 130 260 140 L 260 170 L 240 170 Z" fill="#4169E1" stroke="#000" stroke-width="1"/>
  
  <!-- Tower windows -->
  <rect x="110" y="130" width="10" height="15" fill="#4169E1" stroke="#000" stroke-width="1"/>
  <rect x="280" y="130" width="10" height="15" fill="#4169E1" stroke="#000" stroke-width="1"/>
  
  <!-- Rose window -->
  <circle cx="200" cy="150" r="15" fill="#4169E1" stroke="#000" stroke-width="2"/>
  <circle cx="200" cy="150" r="10" fill="#87CEEB" stroke="#000" stroke-width="1"/>
  <circle cx="200" cy="150" r="5" fill="#4169E1" stroke="#000" stroke-width="1"/>
  
  <!-- Title -->
  <text x="200" y="30" font-family="serif" font-size="16" fill="#2F4F4F" text-anchor="middle" font-weight="bold">St. Joseph Cathedral</text>
  <text x="200" y="50" font-family="serif" font-size="12" fill="#696969" text-anchor="middle">Talibon, Bohol (1875) - Neo-Gothic</text>
</svg>
